<svg width="711" height="485" viewBox="0 0 711 485" fill="none" xmlns="http://www.w3.org/2000/svg">
<path d="M199.211 259.867H228.117V310.648H199.211V371H133.391V310.648H23.4297L19.5234 270.414L133.391 87.2109V86.625H199.211V259.867ZM82.2188 259.867H133.391V172.367L129.289 179.008L82.2188 259.867ZM458.484 254.789C458.484 293.201 449.826 322.823 432.508 343.656C415.32 364.49 391.036 374.906 359.656 374.906C328.016 374.906 303.536 364.424 286.219 343.461C268.901 322.497 260.242 292.94 260.242 254.789V202.836C260.242 164.424 268.836 134.802 286.023 113.969C303.341 93.1354 327.755 82.7188 359.266 82.7188C390.776 82.7188 415.19 93.2005 432.508 114.164C449.826 135.128 458.484 164.75 458.484 203.031V254.789ZM392.664 194.438C392.664 173.995 389.995 158.76 384.656 148.734C379.318 138.578 370.854 133.5 359.266 133.5C347.938 133.5 339.669 138.188 334.461 147.562C329.383 156.938 326.648 171.13 326.258 190.141V262.797C326.258 284.021 328.927 299.581 334.266 309.477C339.604 319.242 348.068 324.125 359.656 324.125C370.854 324.125 379.122 319.372 384.461 309.867C389.799 300.232 392.534 285.193 392.664 264.75V194.438ZM670.492 259.867H699.398V310.648H670.492V371H604.672V310.648H494.711L490.805 270.414L604.672 87.2109V86.625H670.492V259.867ZM553.5 259.867H604.672V172.367L600.57 179.008L553.5 259.867Z" fill="#654BD8"/>
<path d="M191.211 262.867H220.117V313.648H191.211V374H125.391V313.648H15.4297L11.5234 273.414L125.391 90.2109V89.625H191.211V262.867ZM74.2188 262.867H125.391V175.367L121.289 182.008L74.2188 262.867ZM450.484 257.789C450.484 296.201 441.826 325.823 424.508 346.656C407.32 367.49 383.036 377.906 351.656 377.906C320.016 377.906 295.536 367.424 278.219 346.461C260.901 325.497 252.242 295.94 252.242 257.789V205.836C252.242 167.424 260.836 137.802 278.023 116.969C295.341 96.1354 319.755 85.7188 351.266 85.7188C382.776 85.7188 407.19 96.2005 424.508 117.164C441.826 138.128 450.484 167.75 450.484 206.031V257.789ZM384.664 197.438C384.664 176.995 381.995 161.76 376.656 151.734C371.318 141.578 362.854 136.5 351.266 136.5C339.938 136.5 331.669 141.188 326.461 150.562C321.383 159.938 318.648 174.13 318.258 193.141V265.797C318.258 287.021 320.927 302.581 326.266 312.477C331.604 322.242 340.068 327.125 351.656 327.125C362.854 327.125 371.122 322.372 376.461 312.867C381.799 303.232 384.534 288.193 384.664 267.75V197.438ZM662.492 262.867H691.398V313.648H662.492V374H596.672V313.648H486.711L482.805 273.414L596.672 90.2109V89.625H662.492V262.867ZM545.5 262.867H596.672V175.367L592.57 182.008L545.5 262.867Z" fill="white"/>
<path d="M104.41 462.512H470.504V379.493L104.41 378.675V462.512Z" fill="#699FF0"/>
<path d="M470.504 312.298H104.41V334.002H470.504V312.298Z" fill="#699FF0"/>
<path d="M486.038 312.298H79.305C75.2701 312.298 72 309.027 72 304.993V303.99C72 299.955 75.2701 296.685 79.305 296.685H486.038C490.073 296.685 493.343 299.955 493.343 303.99V304.993C493.343 309.001 490.073 312.298 486.038 312.298Z" fill="#466AA5"/>
<path d="M154.069 296.712C154.043 296.738 153.989 296.765 153.963 296.765L153.989 296.712H154.069Z" fill="#5F9AA8"/>
<path d="M343.209 281.021C343.209 280.388 343.71 279.887 344.343 279.887C344.976 279.887 345.477 280.388 345.477 281.021C345.477 281.653 344.976 282.155 344.343 282.155C343.71 282.155 343.209 281.653 343.209 281.021Z" fill="#A53D38"/>
<path d="M343.209 288.194C343.209 287.561 343.71 287.06 344.343 287.06C344.976 287.06 345.477 287.561 345.477 288.194C345.477 288.827 344.976 289.328 344.343 289.328C343.71 289.328 343.209 288.827 343.209 288.194Z" fill="#A53D38"/>
<path opacity="0.9" d="M107.26 378.675L470.505 379.493V334.002H107.26V378.675Z" fill="#AFCDFB"/>
<path d="M445.609 259L437.486 296.633H469.08L476.121 259H445.609Z" fill="#699FF0"/>
<path d="M446.691 260.213L439.359 294.206H467.894L474.249 260.213H446.691Z" fill="#AFCDFB"/>
<path d="M470.532 262.929H448.828C448.433 262.929 448.09 263.246 448.09 263.668C448.09 264.063 448.406 264.406 448.828 264.406H470.532C470.928 264.406 471.271 264.09 471.271 263.668C471.244 263.272 470.928 262.929 470.532 262.929Z" fill="#699FF0"/>
<path d="M469.425 266.358H447.721C447.325 266.358 446.982 266.674 446.982 267.096C446.982 267.492 447.299 267.835 447.721 267.835H469.425C469.82 267.835 470.163 267.518 470.163 267.096C470.137 266.674 469.82 266.358 469.425 266.358Z" fill="#699FF0"/>
<path d="M468.712 269.654H447.008C446.612 269.654 446.27 269.971 446.27 270.393C446.27 270.788 446.586 271.131 447.008 271.131H468.712C469.108 271.131 469.45 270.815 469.45 270.393C469.45 269.971 469.134 269.654 468.712 269.654Z" fill="#699FF0"/>
<path d="M467.71 276.432H446.006C445.61 276.432 445.268 276.748 445.268 277.17C445.268 277.592 445.584 277.909 446.006 277.909H467.71C468.106 277.909 468.448 277.592 468.448 277.17C468.448 276.748 468.132 276.432 467.71 276.432Z" fill="#699FF0"/>
<path d="M466.603 279.86H444.899C444.503 279.86 444.16 280.177 444.16 280.599C444.16 280.994 444.477 281.337 444.899 281.337H466.603C466.998 281.337 467.341 281.021 467.341 280.599C467.341 280.177 467.025 279.86 466.603 279.86Z" fill="#699FF0"/>
<path d="M465.917 283.157H444.213C443.817 283.157 443.475 283.473 443.475 283.895C443.475 284.291 443.791 284.633 444.213 284.633H465.917C466.313 284.633 466.655 284.317 466.655 283.895C466.655 283.473 466.313 283.157 465.917 283.157Z" fill="#699FF0"/>
<path d="M432.154 279.944L427.455 295.523L428.314 295.781L433.013 280.203L432.154 279.944Z" fill="#A53D38"/>
<path d="M428.072 294.048C426.463 294.048 425.118 295.182 424.934 296.633H431.236C430.999 295.182 429.68 294.048 428.072 294.048Z" fill="#B64C41"/>
<path d="M432.187 296.237C430.974 296.237 429.787 296.026 429.682 296.026L429.708 295.815C430.921 296.026 434.112 296.343 434.481 295.314C434.64 294.866 434.481 294.127 434.297 293.072C433.928 291.174 433.347 288.299 434.033 284.317C434.56 281.179 434.165 280.229 433.743 279.992C433.295 279.728 432.714 280.203 432.714 280.203L432.583 280.045C432.609 280.018 433.295 279.491 433.848 279.807C434.534 280.203 434.666 281.733 434.244 284.343C433.585 288.299 434.138 291.147 434.508 293.02C434.719 294.101 434.877 294.866 434.692 295.367C434.455 296.052 433.321 296.237 432.187 296.237Z" fill="#B64C41"/>
<path d="M377.018 316.992L378.864 320.763L383.004 321.37L380.024 324.271L380.71 328.411L377.018 326.459L373.299 328.411L374.011 324.271L371.031 321.37L375.172 320.763L377.018 316.992Z" fill="#F1A34F"/>
<path d="M393.631 316.992L395.477 320.763L399.617 321.369L396.637 324.27L397.323 328.411L393.631 326.459L389.913 328.411L390.625 324.27L387.645 321.369L391.785 320.763L393.631 316.992Z" fill="#F1A34F"/>
<path d="M411.194 316.992L413.04 320.763L417.181 321.369L414.174 324.27L414.886 328.411L411.194 326.459L407.476 328.411L408.188 324.27L405.182 321.369L409.322 320.763L411.194 316.992Z" fill="#F1A34F"/>
<path d="M428.811 316.992L430.657 320.763L434.797 321.369L431.817 324.27L432.503 328.411L428.811 326.459L425.092 328.411L425.804 324.27L422.824 321.369L426.965 320.763L428.811 316.992Z" fill="#F1A34F"/>
<path d="M444.107 316.992L445.953 320.763L450.093 321.369L447.087 324.27L447.799 328.411L444.107 326.459L440.388 328.411L441.1 324.27L438.094 321.369L442.234 320.763L444.107 316.992Z" fill="#F1A34F"/>
<path d="M653.08 453.596C648.785 445.846 631.287 439.734 623.493 438.393C581.815 430.94 538.07 431.984 495.916 432.133C449.944 432.282 406.04 439.138 360.385 442.417C336.684 444.057 311.55 441.076 287.848 440.331C248.716 438.989 209.584 437.499 170.452 435.859C136.729 434.369 101.732 437.648 71.8266 455.087C68.4861 457.025 64.9865 459.409 63.5548 462.987C53.8514 485.345 174.429 482.513 190.177 482.96C269.396 484.897 348.614 485.941 427.833 483.854C486.69 482.364 548.092 482.513 606.472 474.613C619.357 472.824 637.014 472.228 648.149 465.222C654.194 461.049 654.989 457.174 653.08 453.596Z" fill="#654BD8"/>
<path d="M604.959 149.061C605.852 149.061 606.894 149.061 607.936 149.061" stroke="#D2E8F9" stroke-miterlimit="10"/>
<path d="M613.891 149.508C633.092 151.443 656.609 159.629 653.781 176.151C649.465 202.645 531.58 192.821 503.448 193.119C446.887 193.715 389.73 193.863 334.211 206.217C320.667 209.194 301.466 215.892 302.805 233.01C303.252 238.963 306.824 244.471 311.438 248.489C327.662 263.076 350.138 264.565 371.125 267.095C402.829 270.965 553.609 265.755 602.876 281.979C612.551 285.105 624.756 289.273 625.054 303.115C626.096 338.392 538.575 336.605 512.23 337.35C442.124 339.136 372.018 338.392 301.912 337.052C245.202 335.861 188.492 334.968 131.931 331.247C110.795 329.907 76.4123 329.461 60.337 313.683C51.4063 304.902 50.2156 288.677 64.3558 280.491C74.3284 274.686 103.8 277.216 115.112 276.323C149.346 273.346 138.927 252.657 111.242 249.978" stroke="#D2E8F9" stroke-miterlimit="10" stroke-dasharray="4.01 4.01"/>
<path d="M108.414 249.978C107.372 249.978 106.479 249.978 105.438 249.978" stroke="#D2E8F9" stroke-miterlimit="10"/>
<path d="M607.043 174.811L597.964 127.032C597.368 124.204 593.945 123.013 591.861 124.948L555.096 156.652C552.864 158.587 553.608 162.159 556.287 163.053L602.131 179.128C604.811 180.021 607.49 177.639 607.043 174.811Z" fill="#FFCE03"/>
<path d="M600.047 174.067C599.75 174.067 599.601 174.067 599.303 173.918L561.646 160.671C560.901 160.373 560.306 159.778 560.157 158.885C560.008 157.992 560.306 157.248 560.901 156.652L591.117 130.604C591.712 130.009 592.605 129.86 593.349 130.158C594.094 130.456 594.689 131.051 594.838 131.944L602.28 171.239C602.429 172.132 602.131 172.876 601.536 173.472C601.089 173.918 600.643 174.067 600.047 174.067ZM563.58 158.289L599.154 170.792L592.159 133.73L563.58 158.289Z" fill="white"/>
<path d="M583.674 158.141C582.93 157.843 582.633 157.099 582.781 156.354L586.502 143.256C586.8 142.065 588.14 141.321 589.33 141.768C590.521 142.214 591.117 143.554 590.67 144.745L585.461 157.396C585.163 157.992 584.419 158.289 583.674 158.141Z" fill="white"/>
<path d="M583.972 161.713C583.674 162.457 582.93 162.904 582.186 162.606C581.441 162.308 580.995 161.564 581.292 160.82C581.59 160.076 582.334 159.629 583.079 159.927C583.823 160.076 584.269 160.969 583.972 161.713Z" fill="white"/>
<path d="M102.607 233.754L72.9865 219.018C71.2003 218.125 69.1165 219.465 69.2654 221.549L71.3492 254.592C71.498 256.527 73.7307 257.718 75.368 256.527L103.053 238.219C104.542 237.177 104.393 234.647 102.607 233.754Z" fill="#FFCE03"/>
<path d="M99.3328 237.326C99.1839 237.475 99.0351 237.624 98.8862 237.624L76.113 252.657C75.6664 252.955 75.071 252.955 74.4757 252.806C74.0291 252.508 73.5826 252.062 73.5826 251.466L71.9453 224.228C71.9453 223.632 72.243 223.186 72.6895 222.739C73.1361 222.442 73.7315 222.442 74.3268 222.59L98.7374 234.796C99.1839 235.093 99.6304 235.54 99.6304 236.135C99.6304 236.582 99.4816 237.028 99.3328 237.326ZM75.6664 250.573L97.1001 236.284L74.0292 224.823L75.6664 250.573Z" fill="white"/>
<path d="M83.8523 239.559C83.4058 239.856 82.8104 239.708 82.5128 239.261L76.8566 231.819C76.4101 231.075 76.559 230.182 77.3032 229.735C78.0474 229.288 78.9405 229.437 79.387 230.182L84.0012 238.219C84.4477 238.666 84.2989 239.261 83.8523 239.559Z" fill="white"/>
<path d="M85.9367 240.898C86.2344 241.345 86.0855 241.94 85.639 242.238C85.1925 242.536 84.5971 242.387 84.2994 241.94C84.0017 241.494 84.1506 240.898 84.5971 240.601C85.0436 240.303 85.639 240.452 85.9367 240.898Z" fill="white"/>
<path d="M123.148 300.585C124.545 300.585 125.678 299.452 125.678 298.055C125.678 296.657 124.545 295.524 123.148 295.524C121.75 295.524 120.617 296.657 120.617 298.055C120.617 299.452 121.75 300.585 123.148 300.585Z" stroke="#D2E8F9" stroke-miterlimit="10"/>
<path d="M489.9 254.89C491.297 254.89 492.43 253.757 492.43 252.359C492.43 250.962 491.297 249.829 489.9 249.829C488.502 249.829 487.369 250.962 487.369 252.359C487.369 253.757 488.502 254.89 489.9 254.89Z" stroke="#D2E8F9" stroke-miterlimit="10"/>
<path d="M295.36 185.677C296.758 185.677 297.891 184.544 297.891 183.147C297.891 181.749 296.758 180.616 295.36 180.616C293.963 180.616 292.83 181.749 292.83 183.147C292.83 184.544 293.963 185.677 295.36 185.677Z" stroke="#D2E8F9" stroke-miterlimit="10"/>
<path d="M292.384 373.519C293.781 373.519 294.914 372.386 294.914 370.989C294.914 369.591 293.781 368.458 292.384 368.458C290.986 368.458 289.854 369.591 289.854 370.989C289.854 372.386 290.986 373.519 292.384 373.519Z" stroke="#D2E8F9" stroke-miterlimit="10"/>
<path d="M349.988 225.567V231.075" stroke="#D2E8F9" stroke-miterlimit="10" stroke-linecap="round" stroke-linejoin="round"/>
<path d="M352.667 228.247H347.16" stroke="#D2E8F9" stroke-miterlimit="10" stroke-linecap="round" stroke-linejoin="round"/>
<path d="M450.311 154.122V159.629" stroke="#D2E8F9" stroke-miterlimit="10" stroke-linecap="round" stroke-linejoin="round"/>
<path d="M452.99 156.95H447.482" stroke="#D2E8F9" stroke-miterlimit="10" stroke-linecap="round" stroke-linejoin="round"/>
<path d="M605.555 304.902V310.409" stroke="#D2E8F9" stroke-miterlimit="10" stroke-linecap="round" stroke-linejoin="round"/>
<path d="M608.234 307.73H602.727" stroke="#D2E8F9" stroke-miterlimit="10" stroke-linecap="round" stroke-linejoin="round"/>
<path d="M400.152 464.761C400.152 464.761 389.732 469.226 389.732 471.459C389.732 472.798 404.022 470.864 404.915 470.119C406.254 468.78 404.319 465.059 404.319 465.059L400.152 464.761Z" fill="#26387A"/>
<path d="M399.404 458.509L400 464.91C400 464.91 400.297 465.952 401.786 466.1C403.274 466.249 404.167 464.91 404.167 464.91L403.721 456.872" fill="#FFB288"/>
<path d="M417.564 311.748C421.285 326.931 419.945 334.671 414.438 346.28C411.014 384.98 408.782 423.531 404.168 461.189L399.405 461.486C388.539 424.722 378.566 369.947 379.757 319.637" fill="#26387A"/>
<path d="M415.184 316.958C416.524 320.53 416.97 324.549 416.821 328.27C416.673 334.075 414.291 339.285 412.803 344.792C410.719 352.085 410.57 359.379 410.123 366.97C409.23 378.729 408.337 390.487 407.444 402.246C405.956 421.447 404.467 440.499 402.979 459.7C402.979 460.296 402.83 460.891 402.83 461.337" stroke="#0061A6" stroke-width="0.5" stroke-miterlimit="10"/>
<path d="M441.528 466.249C441.528 466.249 431.109 470.715 431.109 472.947C431.109 474.287 445.398 472.352 446.291 471.608C447.631 470.268 445.696 466.547 445.696 466.547L441.528 466.249Z" fill="#26387A"/>
<path d="M440.934 459.998L441.529 466.398C441.529 466.398 441.827 467.44 443.315 467.589C444.804 467.738 445.697 466.398 445.697 466.398L445.25 458.361" fill="#FFB288"/>
<path d="M452.246 310.409C457.009 325.442 456.116 333.182 451.353 345.09C450.609 383.938 447.93 424.424 445.846 462.379H440.934C427.687 426.508 413.398 370.989 411.463 320.828" fill="#26387A"/>
<path d="M449.867 316.66C449.867 316.66 455.374 329.61 445.997 347.918C444.955 365.184 444.359 462.379 444.359 462.379" stroke="#0061A6" stroke-width="0.5" stroke-miterlimit="10"/>
<path d="M436.172 320.828C437.065 322.316 438.553 323.358 440.191 323.954C441.828 324.549 443.465 324.847 445.251 325.144C447.335 325.442 449.419 325.591 451.503 325.442" stroke="#0061A6" stroke-width="0.5" stroke-miterlimit="10"/>
<path d="M436.766 323.209C438.552 324.847 440.784 325.74 443.166 326.335C445.548 326.931 447.929 326.931 450.311 327.079" stroke="#0061A6" stroke-width="0.5" stroke-miterlimit="10"/>
<path d="M395.385 238.07C378.864 266.797 361.002 292.994 350.434 324.4L347.309 322.763C348.053 293.589 357.579 251.02 370.082 224.525" fill="#FFB288"/>
<path d="M387.348 208.004C387.348 208.004 382.288 209.492 376.185 213.511C370.529 217.232 366.212 222.888 363.384 228.991C360.407 235.093 358.919 241.791 357.877 248.489C357.877 248.489 364.873 251.913 372.761 252.955C380.65 253.997 389.134 252.955 389.134 252.955" fill="#745AE7"/>
<path d="M374.994 225.121C373.208 256.229 374.547 288.231 375.44 318.595C375.44 318.595 386.306 321.423 412.651 321.423C438.997 321.423 456.114 313.386 456.114 313.386C451.053 282.277 447.035 244.024 434.532 218.423C434.532 218.423 420.391 203.241 406.549 202.645C403.721 202.496 401.042 203.538 398.362 204.729C396.427 205.622 387.348 207.855 387.348 207.855L374.994 225.121Z" fill="#654BD8"/>
<path d="M374.846 227.8C374.102 233.754 374.102 252.211 374.102 252.211" stroke="#654BD8" stroke-width="0.5" stroke-miterlimit="10"/>
<path d="M401.041 328.419C445.099 323.507 463.556 379.473 473.677 401.055C497.344 452.258 586.948 446.602 627.732 446.602C681.167 446.602 704.684 464.612 679.679 473.989" stroke="#745AE7" stroke-width="5" stroke-miterlimit="10" stroke-linecap="round" stroke-linejoin="round"/>
<path d="M416.224 330.949C416.224 353.574 399.106 367.268 384.371 367.268H360.258V294.482H384.371C399.106 294.482 416.224 308.176 416.224 330.949Z" fill="#FFCE03"/>
<path d="M403.871 330.949C403.871 353.127 390.773 371.138 374.549 371.138H348.055V290.91H374.549C390.773 290.761 403.871 308.772 403.871 330.949Z" fill="#EF8417"/>
<path opacity="0.5" d="M409.825 308.92C404.02 316.809 398.513 324.698 393.006 332.736C393.75 332.587 394.494 332.14 395.09 331.694C395.09 332.289 394.197 333.331 394.941 333.777C395.834 334.224 396.727 333.182 397.62 333.48C398.513 333.331 399.257 332.289 399.853 331.694C399.555 332.289 399.555 332.736 399.406 333.033C405.211 330.801 410.57 325.293 415.035 320.828C413.993 316.363 412.058 312.344 409.825 308.92Z" fill="#FDAE2B"/>
<path d="M349.988 371.138C366.183 371.138 379.311 353.145 379.311 330.949C379.311 308.754 366.183 290.761 349.988 290.761C333.794 290.761 320.666 308.754 320.666 330.949C320.666 353.145 333.794 371.138 349.988 371.138Z" fill="#FFCE03"/>
<path d="M352.371 345.09C352.371 348.364 350.139 351.043 347.311 351.043C344.483 351.043 342.25 348.364 342.25 345.09C342.25 341.815 344.483 339.136 347.311 339.136C350.139 339.136 352.371 341.815 352.371 345.09Z" fill="#EF8417"/>
<path d="M352.371 316.66C352.371 319.935 350.139 322.614 347.311 322.614C344.483 322.614 342.25 319.935 342.25 316.66C342.25 313.386 344.483 310.707 347.311 310.707C350.139 310.707 352.371 313.386 352.371 316.66Z" fill="#EF8417"/>
<path d="M442.57 248.043C442.57 248.043 444.356 266.946 436.021 282.724C428.727 296.269 414.438 313.683 402.68 323.21L399.852 322.465C403.87 306.985 416.671 279.3 417.415 269.03C418.159 258.76 418.011 246.703 418.159 240.898" fill="#FFB288"/>
<path d="M406.549 202.645C406.549 202.645 422.178 203.687 431.257 211.427C444.207 222.293 446.142 243.726 446.142 248.638C442.272 252.806 433.639 253.104 427.536 253.104C421.284 253.104 416.819 250.127 416.819 250.127L415.48 226.609" fill="#745AE7"/>
<path d="M401.042 320.381C399.255 320.53 397.618 321.423 395.981 322.614C394.641 323.656 393.004 325.442 393.153 326.335C393.302 327.228 395.534 325.591 395.832 325.889C396.13 326.186 391.962 332.438 392.706 332.884C393.451 333.331 397.023 327.675 397.023 327.675C397.023 327.675 393.599 333.629 394.939 333.777C395.981 333.926 399.107 328.27 399.107 328.27C399.107 328.27 396.576 333.331 397.469 333.48C398.362 333.629 400.744 328.568 400.744 328.568C400.744 328.568 398.809 332.884 399.553 333.033C399.851 333.033 401.786 330.949 402.679 328.27C403.423 325.74 404.316 323.507 403.721 321.423" fill="#FFB288"/>
<path d="M417.266 228.991V250.424" stroke="#745AE7" stroke-width="0.5" stroke-miterlimit="10"/>
<path d="M374.248 182.849C374.1 183.742 374.1 184.784 374.1 185.677C374.1 187.761 374.397 189.845 375.588 191.482C376.332 192.673 377.523 193.417 378.863 193.863C379.756 194.161 381.095 194.012 381.393 193.119C381.542 192.821 381.542 192.375 381.542 192.077C381.542 188.654 380.798 185.23 379.607 181.956" fill="#26387A"/>
<path d="M397.766 184.784C396.426 179.574 392.259 172.281 385.412 173.769C381.095 174.662 377.225 177.639 375.886 181.658C374.397 186.57 376.779 192.226 379.756 196.245C380.798 197.733 382.137 199.073 383.775 199.966C387.793 202.05 393.152 200.264 395.831 196.989C398.51 193.715 398.808 188.952 397.766 184.784Z" fill="#FFB288"/>
<path d="M388.092 198.478L390.325 206.664L387.348 208.152C387.348 208.152 389.729 211.278 394.195 210.534C403.572 209.194 406.549 202.645 406.549 202.645L401.339 202.05L395.534 192.077" fill="#FFB288"/>
<path d="M402.232 179.128C401.636 175.555 398.957 172.43 395.98 170.644C390.473 167.22 382.584 167.071 377.672 171.686C374.844 174.365 369.783 183.593 375.886 185.528C377.821 186.123 379.756 184.933 381.393 183.891C383.031 182.849 384.668 181.658 386.454 180.616C387.049 180.17 387.645 179.872 388.389 179.723C389.58 179.723 390.473 180.765 390.919 181.807C391.366 182.849 391.366 184.188 391.664 185.23C391.812 185.975 392.259 186.868 392.854 187.314C393.599 187.761 394.64 187.612 395.087 186.868C395.385 186.272 395.087 185.677 395.087 185.082C395.087 184.486 395.385 183.742 395.98 183.891C396.129 183.891 396.427 184.04 396.575 184.188C398.064 185.379 397.617 187.612 398.064 189.398C398.064 189.696 397.617 193.268 397.766 193.417C402.38 192.226 402.827 181.658 402.232 179.128Z" fill="#26387A"/>
<path d="M395.384 184.189C395.236 183.593 395.98 182.849 396.575 182.849C397.171 182.849 397.915 183.147 398.361 183.593C399.254 184.337 399.85 185.379 399.85 186.57C399.85 187.463 399.552 188.356 398.957 189.1C398.659 189.547 398.213 190.142 397.617 190.291C396.873 190.589 395.98 190.142 395.533 189.696" fill="#FFB288"/>
<path d="M229.724 464.463C229.724 464.463 239.697 466.1 239.995 468.333C240.144 469.524 225.854 471.161 224.961 470.417C223.473 469.226 225.259 464.761 225.259 464.761L229.724 464.463Z" fill="#26387A"/>
<path d="M228.833 458.361L229.726 464.761C229.726 464.761 229.577 465.803 228.088 466.1C226.6 466.398 225.558 465.207 225.558 465.207L224.367 457.319" fill="#FFB288"/>
<path d="M191.323 313.683C189.537 329.312 189.388 336.754 196.384 347.471C199.658 362.504 204.719 377.984 208.589 393.464C206.952 411.921 218.562 441.392 224.813 462.379L229.278 461.635C235.381 423.829 237.614 365.779 232.107 315.023" fill="#26387A"/>
<path d="M194.301 334.819C194.301 334.819 211.567 389.594 211.567 392.571C211.567 395.548 212.013 405.818 212.758 412.368C214.097 424.573 225.112 460.296 225.112 460.296" stroke="#0061A6" stroke-width="0.5" stroke-miterlimit="10"/>
<path d="M224.664 463.272L223.92 460.593L229.725 460.296L229.874 462.826L224.664 463.272Z" fill="#0061A6"/>
<path d="M151.579 464.761C151.579 464.761 159.468 470.417 158.723 472.501C158.277 473.692 145.476 468.929 145.03 467.887C144.285 466.249 147.709 463.272 147.709 463.272L151.579 464.761Z" fill="#26387A"/>
<path d="M153.514 459.254L151.579 465.059C151.579 465.059 150.983 465.952 149.644 465.505C148.304 465.207 147.857 463.719 147.857 463.719L150.239 456.426" fill="#FFB288"/>
<path d="M157.684 310.409C152.921 325.442 153.814 333.182 158.577 345.09C158.874 359.23 159.023 373.668 159.172 387.957C149.051 413.261 147.413 435.885 148.753 459.998L153.665 461.784C153.665 461.784 182.69 411.177 188.048 391.232C194.151 368.309 197.574 343.75 198.616 320.828" fill="#26387A"/>
<path d="M158.874 313.683C158.874 313.683 153.664 329.163 160.511 344.048C160.511 348.215 162.893 382.747 161.999 388.106C161.553 390.636 156.79 402.841 153.664 414.749C150.092 427.847 149.348 458.956 149.348 458.956" stroke="#0061A6" stroke-width="0.5" stroke-miterlimit="10"/>
<path d="M147.707 459.998L148.6 456.723L154.852 459.7L153.512 462.528L147.707 459.998Z" fill="#0061A6"/>
<path d="M238.802 194.905L234.932 191.631C234.932 191.631 234.932 185.826 234.932 184.784C234.932 183.742 233.444 177.342 232.104 177.342C230.765 177.342 230.467 175.704 229.872 176.449C229.276 177.044 230.467 184.337 229.872 184.933C229.276 185.528 228.681 181.509 228.086 181.956C227.639 182.402 227.49 185.379 227.49 186.868C227.49 188.356 228.681 191.184 229.872 192.375C231.062 193.566 236.272 199.222 236.272 199.222L238.802 194.905Z" fill="#EF9467"/>
<path d="M236.867 192.673L233.592 196.394C233.592 196.394 246.542 213.511 250.561 219.167C246.84 217.827 241.481 214.553 238.355 212.618C232.253 208.599 226.15 206.515 221.983 206.515C213.052 206.515 217.666 235.986 228.085 240.303C247.733 243.28 269.762 241.345 273.185 234.498C278.246 224.228 249.37 200.115 236.867 192.673Z" fill="#745AE7"/>
<path d="M250.561 219.167C250.561 219.167 253.091 226.014 257.407 228.247" stroke="#745AE7" stroke-width="0.5" stroke-miterlimit="10"/>
<path d="M176.882 214.255C153.365 240.601 153.811 285.849 153.811 316.66C153.811 316.66 171.077 328.419 197.274 328.419C223.619 328.419 234.485 321.87 234.485 321.87C235.229 290.761 229.722 277.216 234.932 225.716C234.932 225.716 226.596 206.515 222.131 206.515C217.666 206.515 200.102 204.729 200.102 204.729L176.882 214.255Z" fill="#654BD8"/>
<path d="M233.592 240.898C233.592 240.898 234.187 231.819 236.271 229.735" stroke="#654BD8" stroke-width="0.5" stroke-miterlimit="10"/>
<path d="M207.843 185.082C208.736 179.723 212.457 172.132 219.452 173.025C223.769 173.62 227.192 176.597 229.574 180.17C231.658 183.147 230.914 186.123 227.937 193.715C227.044 195.352 224.96 198.031 223.322 199.073C219.601 201.454 214.094 200.264 211.117 197.138C208.14 194.012 207.098 189.249 207.843 185.082Z" fill="#FFB288"/>
<path d="M208.735 184.337C209.777 184.188 208.735 183.593 209.182 184.486C209.479 185.082 209.479 185.23 210.075 185.379C210.67 185.528 210.67 186.123 211.117 186.421C211.861 187.017 212.456 186.272 212.754 185.677C213.349 184.486 213.349 183.147 213.2 181.956C213.052 180.914 212.754 179.425 213.796 178.681C214.54 178.086 216.326 178.979 217.07 179.128C218.261 179.425 219.601 179.872 220.792 180.319C223.768 181.212 226.894 182.105 230.169 181.658C232.848 181.36 235.825 179.872 237.016 177.342C238.653 174.216 235.378 170.346 232.253 170.346C231.36 170.346 230.615 170.644 229.722 170.792C229.425 170.792 229.127 170.941 228.829 170.792C228.085 170.644 227.787 169.751 227.49 169.155C226.299 167.369 224.215 166.774 222.131 166.922C219.75 167.22 217.666 168.262 215.433 169.006C214.242 169.304 213.2 169.006 212.01 169.006C210.819 169.006 209.479 169.899 208.884 170.941C207.842 169.899 205.758 172.43 205.163 173.025C202.781 175.853 202.037 180.021 202.037 183.742C202.037 186.868 202.484 191.631 206.056 192.821C207.544 193.417 208.437 193.715 208.586 192.226C207.991 190.886 207.842 188.058 207.693 186.868C207.544 185.677 207.842 184.337 209.033 183.891" fill="#26387A"/>
<path d="M220.049 197.733L219.304 205.771L221.984 206.515C221.984 206.515 220.644 210.087 216.03 210.683C206.653 211.874 200.104 204.729 200.104 204.729L203.229 204.134L207.992 189.249" fill="#FFB288"/>
<path d="M210.224 184.337C210.224 183.742 209.629 183.147 208.884 183.147C208.289 183.147 207.545 183.593 207.098 184.04C204.419 186.719 207.842 192.97 210.373 189.696" fill="#FFB288"/>
<path d="M227.936 193.566C227.49 194.608 225.853 194.905 224.959 195.054C220.494 195.501 216.922 192.673 212.754 192.226C211.861 192.077 210.968 192.077 210.373 192.673C209.777 193.268 209.777 194.161 209.777 194.905C209.777 195.947 209.777 196.84 209.777 197.882C209.926 198.775 210.075 199.519 210.522 200.264C212.457 203.389 218.708 203.985 221.983 203.836C223.322 203.687 224.662 203.538 225.704 202.794C227.192 201.752 227.49 199.817 227.936 198.18C228.383 195.798 227.936 193.566 227.936 193.566Z" fill="#26387A"/>
<path d="M224.811 196.989C224.662 196.84 224.513 196.84 224.364 196.84C222.281 196.84 221.239 196.394 219.601 196.245C219.304 196.245 219.006 196.245 218.857 196.245C218.262 196.394 217.964 196.989 217.815 197.584C217.666 198.18 217.964 198.626 218.559 198.924C219.453 199.371 220.643 199.519 221.685 199.668C222.578 199.668 223.769 199.817 224.513 199.222C224.811 198.626 225.406 197.436 224.811 196.989Z" fill="#FFB288"/>
<path d="M205.461 313.237C154.258 310.558 124.489 337.052 103.204 385.129C75.6679 447.644 37.266 452.556 20 452.258" stroke="#745AE7" stroke-width="5" stroke-miterlimit="10" stroke-linecap="round" stroke-linejoin="round"/>
<path d="M185.813 317.405C187.748 340.029 205.907 352.234 220.494 351.044L244.458 349.108L238.355 276.621L214.391 278.556C199.804 279.747 183.878 294.78 185.813 317.405Z" fill="#FFCE03"/>
<path d="M198.168 316.363C199.954 338.392 214.541 355.211 230.765 353.872L257.259 351.639L250.561 271.709L224.067 273.942C207.843 275.281 196.233 294.185 198.168 316.363Z" fill="#EF8417"/>
<path d="M255.227 351.927C271.365 350.581 282.952 331.56 281.106 309.442C279.261 287.324 264.684 270.486 248.546 271.832C232.408 273.178 220.822 292.199 222.667 314.317C224.512 336.435 239.09 353.273 255.227 351.927Z" fill="#FFCE03"/>
<path d="M250.71 326.186C251.008 329.461 253.389 331.991 256.217 331.694C259.045 331.396 260.98 328.568 260.682 325.293C260.385 322.019 258.003 319.488 255.175 319.786C252.347 320.084 250.412 322.912 250.71 326.186Z" fill="#FDAE2B"/>
<path d="M248.327 297.906C248.625 301.18 251.006 303.711 253.834 303.413C256.662 303.115 258.597 300.287 258.3 297.013C258.002 293.738 255.62 291.208 252.792 291.506C249.964 291.803 248.029 294.631 248.327 297.906Z" fill="#FDAE2B"/>
<path d="M254.132 301.627C257.109 301.329 291.492 298.501 291.492 298.501C293.725 298.352 295.511 296.269 295.214 294.036C295.065 291.803 292.981 290.017 290.748 290.166C290.748 290.166 256.216 292.994 253.388 293.292C250.56 293.441 251.156 301.925 254.132 301.627Z" fill="#E2E8ED"/>
<path d="M256.515 329.908C259.492 329.61 293.875 326.782 293.875 326.782C296.108 326.633 297.894 324.549 297.596 322.316C297.448 320.084 295.364 318.298 293.131 318.446C293.131 318.446 258.599 321.274 255.771 321.572C252.943 321.87 253.538 330.205 256.515 329.908Z" fill="#E2E8ED"/>
<path d="M164.378 248.043C164.378 248.043 162.591 266.946 170.927 282.724C178.22 296.269 192.509 313.683 204.268 323.21L207.096 322.465C203.077 306.985 190.277 279.3 189.532 269.03C188.788 258.76 188.937 246.703 188.788 240.898" fill="#FFB288"/>
<path d="M199.952 204.729C199.952 204.729 183.579 205.622 174.053 212.767C157.68 225.121 160.955 258.313 165.718 274.537C170.481 290.761 193.403 315.023 200.696 320.233C201.887 320.233 205.459 319.935 205.311 317.107C201.292 304.455 189.533 271.263 189.533 271.263L191.319 226.46" fill="#745AE7"/>
<path d="M205.905 320.381C207.691 320.53 209.328 321.423 210.966 322.614C212.305 323.656 213.943 325.442 213.794 326.335C213.645 327.228 211.412 325.591 211.115 325.889C210.817 326.186 214.984 332.438 214.24 332.884C213.496 333.331 209.924 327.675 209.924 327.675C209.924 327.675 213.347 333.629 212.008 333.777C210.966 333.926 207.84 328.27 207.84 328.27C207.84 328.27 210.37 333.331 209.477 333.48C208.584 333.629 206.203 328.568 206.203 328.568C206.203 328.568 208.138 332.884 207.393 333.033C207.096 333.033 205.161 330.949 204.268 328.27C203.523 325.74 202.63 323.507 203.226 321.423" fill="#FFB288"/>
<path d="M194.296 284.51C191.617 276.919 189.682 271.263 189.682 271.263L193.105 233.605" stroke="#745AE7" stroke-width="0.5" stroke-miterlimit="10"/>
<path d="M161.998 242.833C161.849 253.104 163.188 265.607 165.719 274.537C167.951 282.277 174.501 291.952 181.496 300.585" stroke="#745AE7" stroke-width="0.5" stroke-miterlimit="10"/>
<path d="M513.57 187.463L516.25 185.677C516.25 185.677 517.44 179.872 518.185 178.83C518.929 177.788 520.268 175.407 521.757 174.365C522.352 173.918 525.329 172.281 526.073 173.025C526.371 173.323 525.18 176.746 524.585 177.342C523.989 177.937 522.352 180.467 522.65 181.212C522.948 181.956 524.287 180.318 524.585 179.872C524.883 179.574 525.329 179.128 525.478 179.574C525.776 180.319 524.287 184.337 523.096 185.379C521.906 186.57 520.119 187.612 518.78 187.612L514.612 191.184" fill="#FFB288"/>
<path d="M545.274 168.56C549.591 171.09 552.419 176.002 553.461 180.914C553.61 181.807 553.758 182.7 554.354 183.444C554.8 184.04 555.544 184.188 556.14 184.486C559.712 186.123 562.54 189.398 563.88 193.268C564.475 194.905 564.029 197.138 564.624 198.478C565.368 200.115 568.196 200.561 569.834 201.008C574.448 202.496 577.871 207.111 577.871 212.022C577.871 216.934 574.597 221.548 570.131 223.186C571.322 224.972 571.471 227.205 571.024 229.288C570.429 231.372 569.238 233.158 567.75 234.647C561.945 241.196 553.014 244.619 544.381 244.322C541.851 244.173 539.32 243.726 537.088 242.833C534.409 241.791 532.176 240.005 529.943 238.219C527.264 236.135 524.585 233.754 523.096 230.628C521.608 227.502 521.757 223.483 524.138 220.953C521.31 221.548 518.333 220.06 516.696 217.53C515.059 215.148 514.761 212.022 515.505 209.194C516.101 206.366 517.589 203.836 519.375 201.454C520.566 199.817 522.054 198.18 522.203 196.096C522.65 192.673 520.715 189.696 520.268 186.421C519.524 181.212 519.673 176.746 524.138 173.918C525.627 170.197 527.264 167.369 531.432 166.327C536.195 165.136 540.958 165.881 545.274 168.56Z" fill="#26387A"/>
<path d="M534.557 208.004C519.673 204.134 502.704 210.236 498.983 210.236C504.193 205.027 513.719 193.566 516.993 189.547C516.993 186.868 515.356 185.975 515.356 185.975C515.356 185.975 474.573 206.962 478.74 220.804C483.057 235.093 522.947 228.098 526.073 232.265" fill="#745AE7"/>
<path d="M537.533 341.666C537.533 342.857 532.175 369.054 531.729 371.882C530.538 380.068 534.854 388.255 534.557 400.906C534.11 416.237 527.561 457.765 526.668 459.551C525.775 461.337 521.905 459.7 521.905 459.7C521.905 459.7 510.444 404.181 509.7 381.408C509.104 362.653 511.932 322.168 511.932 322.168" fill="#FFB288"/>
<path d="M527.115 460.147C527.115 460.147 527.71 461.486 527.71 462.23C527.561 464.017 527.561 465.059 527.561 465.059H526.817L526.519 463.719C526.519 463.719 524.584 464.017 522.5 465.356C521.458 465.952 516.547 465.952 515.802 465.505C514.909 465.059 515.207 464.314 515.505 463.868C515.802 463.57 521.161 461.189 521.161 461.189" fill="#26387A"/>
<path d="M521.756 459.7C521.309 460.742 517.141 462.975 517.439 463.421C517.886 463.719 520.267 463.719 522.946 462.826C525.477 461.933 526.816 461.04 526.965 460.444L526.519 458.658" fill="#FFB288"/>
<path d="M574.447 342.708C574.447 343.899 569.982 370.244 569.684 373.072C568.791 381.259 573.405 389.297 573.256 401.948C573.256 417.428 567.898 458.956 567.154 460.742C566.409 462.528 562.391 461.04 562.391 461.04C562.391 461.04 549.143 405.967 547.804 383.194C546.762 364.439 548.25 323.954 548.25 323.954" fill="#FFB288"/>
<path d="M567.6 461.486C567.6 461.486 568.344 462.826 568.344 463.57C568.344 465.356 568.344 466.547 568.344 466.547H567.6L567.302 465.207C567.302 465.207 565.367 465.654 563.284 466.994C562.391 467.738 557.33 467.738 556.586 467.44C555.693 466.994 555.99 466.249 556.288 465.803C556.586 465.505 561.795 462.975 561.795 462.975" fill="#26387A"/>
<path d="M562.391 461.189C561.944 462.23 557.776 464.612 558.223 464.91C558.669 465.207 561.051 465.207 563.73 464.165C566.112 463.272 567.6 462.23 567.6 461.635L567.005 459.849" fill="#FFB288"/>
<path d="M561.051 275.43C561.051 275.43 572.81 283.17 577.276 301.627C583.378 326.633 574.447 375.603 574.447 375.603C574.447 375.603 555.991 380.961 535.897 380.812C515.803 380.664 503.895 373.817 503.895 372.626C503.895 371.435 500.918 334.373 504.937 309.218C509.551 280.938 521.161 273.346 521.161 273.346" fill="#2858AD"/>
<path d="M545.123 207.557C546.91 206.813 551.673 208.599 560.603 211.874C564.473 216.041 566.259 225.418 567.004 233.605C564.771 253.55 562.092 264.416 563.431 271.114C563.729 272.751 565.217 273.942 564.92 276.175C564.473 280.789 556.882 281.533 542.593 283.021C528.304 284.659 515.503 278.109 516.248 276.175C516.992 274.091 519.522 272.305 519.82 270.965C520.266 269.625 521.308 252.508 519.82 250.573C518.331 248.489 514.312 242.684 514.312 237.028C514.312 228.991 518.778 225.418 521.606 221.102C526.369 213.809 530.09 209.194 534.704 208.004C541.998 206.217 545.123 207.557 545.123 207.557Z" fill="#654BD8"/>
<path d="M521.012 217.679C521.012 217.679 521.458 221.102 519.821 223.93C519.225 224.823 516.1 228.098 515.355 230.182" stroke="#2858AD" stroke-width="0.5" stroke-miterlimit="10"/>
<path d="M541.702 197.733C545.572 193.863 546.167 186.57 544.381 181.509C542.446 175.853 534.408 171.686 528.901 175.258C518.184 182.253 529.05 210.236 541.702 197.733Z" fill="#FFB288"/>
<path d="M534.26 197.138L534.409 209.046C534.409 209.046 533.962 211.725 538.576 211.874C544.977 212.171 544.977 207.557 544.977 207.557L541.256 195.203" fill="#FFB288"/>
<path d="M539.022 170.048C537.682 169.155 536.342 169.155 535.003 169.899C534.11 170.346 533.514 171.239 532.77 171.537C532.175 171.834 531.43 171.834 530.686 171.983C527.56 172.876 524.584 175.258 523.393 178.235C522.053 181.212 522.5 186.123 525.03 188.207C524.881 185.975 525.625 182.551 526.816 180.616C527.412 179.574 528.454 178.532 529.644 178.681C530.984 178.83 531.728 180.318 532.77 181.212C534.258 182.7 536.342 182.998 538.277 183.295C540.51 183.593 542.147 184.04 543.338 186.123C543.785 187.016 544.082 188.058 544.38 189.1C544.678 190.291 544.975 191.482 545.124 192.821C545.124 193.566 545.124 194.459 545.422 195.203C545.868 196.691 547.357 197.584 548.845 198.031C550.036 198.478 551.822 198.775 552.566 197.436C553.162 196.394 553.608 194.905 553.906 193.715C554.65 189.696 553.311 185.528 551.078 182.105C548.696 178.384 545.273 175.853 542.296 172.579C540.957 171.686 540.063 170.644 539.022 170.048Z" fill="#26387A"/>
<path d="M542.147 188.505C542.445 187.612 543.04 186.719 543.933 186.57C546.91 186.123 546.463 190.589 545.273 192.226C544.528 193.119 542.742 194.31 541.998 191.78" fill="#FFB288"/>
<path d="M574.444 281.533L572.956 284.659C572.956 284.659 567.598 285.998 567.002 286.891C566.109 288.38 564.77 290.464 564.77 291.654C564.77 292.845 564.918 298.055 566.407 298.055C567.3 298.055 569.533 293.887 569.979 293.292C571.021 291.952 575.338 290.91 575.338 287.189L578.017 281.682" fill="#FFB288"/>
<path d="M545.123 207.408C545.123 207.408 557.775 204.134 567.599 210.385C575.19 215.148 594.986 239.261 594.986 253.104C594.986 262.332 576.529 285.403 576.529 285.403L573.404 283.17C573.404 283.17 575.19 265.011 580.548 255.187C576.529 251.169 561.198 238.963 557.328 235.093" fill="#745AE7"/>
<path d="M555.393 233.754C558.221 236.135 565.365 242.089 565.365 242.089" stroke="#2858AD" stroke-width="0.5" stroke-miterlimit="10"/>
<path d="M617.347 414.791C617.347 414.791 609.383 405.481 616.846 399.6C616.846 399.6 622.305 396.304 626.762 396.568C626.762 396.568 620.459 407.143 622.49 408.198C624.52 409.252 628.661 395.908 628.661 395.908C628.661 395.908 641.082 394.695 645.09 396.62C645.09 396.62 634.463 405.323 636.704 405.824C638.946 406.352 650.417 397.807 650.417 397.807C650.417 397.807 661.995 399.785 661.362 406.826C660.729 413.868 656.747 416.056 655.006 415.872C653.266 415.687 643.007 411.784 642.796 413.208C642.585 414.632 648.73 419.326 653.055 419.564C653.055 419.564 644.906 428.557 639.473 425.972C634.041 423.388 633.592 419.274 630.217 417.718C626.841 416.162 623.967 416.188 625.338 417.744C626.736 419.326 632.854 420.856 634.779 424.258C636.704 427.686 638.445 429.981 632.828 429.137C627.21 428.293 618.112 424.179 617.716 419.485C617.347 414.79 617.347 414.791 617.347 414.791Z" fill="#82B378"/>
<path d="M655.719 407.011C655.719 407.011 624.31 405.798 617.348 414.79C617.348 414.79 615.818 419.379 611.098 423.572L610.359 425.577C610.359 425.577 615.792 419.827 617.743 419.485C617.743 419.485 614.711 408.356 655.719 407.011Z" fill="#82B378"/>
<path d="M611.098 423.572C611.098 423.572 604.347 428.557 603.898 437.47L605.112 437.576C605.112 437.576 607.274 428.372 611.151 424.759C615.054 421.146 611.098 423.572 611.098 423.572Z" fill="#82B378"/>
<path d="M589.499 403.081C589.499 403.081 602.183 395.987 596.25 386.362C596.25 386.362 591.529 380.454 586.439 378.925C586.439 378.925 589.156 393.298 586.439 393.64C583.723 393.983 584.593 377.422 584.593 377.422C584.593 377.422 571.249 370.987 566.001 371.514C566.001 371.514 574.282 385.544 571.566 385.201C568.849 384.859 559.567 370.67 559.567 370.67C559.567 370.67 545.88 368.139 543.691 376.235C541.502 384.357 545.036 388.392 547.066 388.92C549.097 389.421 562.098 389.263 561.782 390.95C561.439 392.638 552.657 395.355 547.752 393.825C547.752 393.825 553.158 407.169 560.252 406.51C567.346 405.824 569.561 401.446 573.939 401.104C578.343 400.761 581.534 401.947 579.345 403.134C577.157 404.321 569.72 403.53 566.159 406.536C562.599 409.543 559.725 411.415 566.318 412.76C572.911 414.105 584.752 413.261 587.099 408.198C589.499 403.081 589.499 403.081 589.499 403.081Z" fill="#A8D29F"/>
<path d="M549.941 378.767C549.941 378.767 585.438 390.265 589.499 403.108C589.499 403.108 589.341 408.857 592.875 415.45V417.982C592.875 417.982 589.156 409.358 587.126 408.171C587.126 408.171 595.064 397.016 549.941 378.767Z" fill="#82B378"/>
<path d="M592.874 415.423C592.874 415.423 598.359 423.731 595.221 433.857L593.823 433.488C593.823 433.488 595.195 422.333 592.32 416.742C589.446 411.125 592.874 415.423 592.874 415.423Z" fill="#82B378"/>
<path d="M609.646 393.298C609.646 393.298 592.926 383.936 600.732 371.251C600.732 371.251 606.983 363.445 613.655 361.44C613.655 361.44 610.094 380.375 613.655 380.824C617.215 381.272 616.107 359.436 616.107 359.436C616.107 359.436 633.697 350.971 640.607 351.63C640.607 351.63 629.689 370.117 633.249 369.668C636.809 369.22 649.072 350.496 649.072 350.496C649.072 350.496 667.11 347.147 670.011 357.854C672.912 368.561 668.218 373.888 665.554 374.574C662.891 375.233 645.723 375.022 646.171 377.237C646.619 379.452 658.197 383.039 664.658 381.035C664.658 381.035 657.537 398.625 648.175 397.754C638.813 396.858 635.913 391.082 630.137 390.634C624.335 390.186 620.116 391.742 623.017 393.298C625.918 394.853 635.728 393.799 640.396 397.781C645.064 401.763 648.861 404.215 640.185 405.982C631.508 407.776 615.896 406.642 612.784 399.97C609.646 393.298 609.646 393.298 609.646 393.298Z" fill="#A8D29F"/>
<path d="M661.783 361.229C661.783 361.229 615 376.367 609.646 393.324C609.646 393.324 609.857 400.893 605.189 409.595V412.944C605.189 412.944 610.095 401.578 612.758 400.022C612.785 399.996 602.315 385.28 661.783 361.229Z" fill="#82B378"/>
<path d="M605.216 409.569C605.216 409.569 597.99 420.513 602.104 433.857L603.95 433.356C603.95 433.356 602.157 418.667 605.928 411.283C609.699 403.899 605.216 409.569 605.216 409.569Z" fill="#82B378"/>
<path d="M609.093 462.787C627.157 462.787 641.82 448.125 641.82 430.06H576.365C576.365 448.125 591.028 462.787 609.093 462.787Z" fill="#F1A34F"/>
<path d="M617.162 462.524C615.843 462.682 614.472 462.761 613.101 462.761C595.036 462.761 580.373 448.098 580.373 430.033H588.496C588.496 446.753 600.996 460.519 617.162 462.524Z" fill="#FFB973"/>
<path d="M642.269 464.449H575.891C575.891 462.207 577.71 460.414 579.926 460.414H638.207C640.475 460.414 642.269 462.207 642.269 464.449Z" fill="#F1A34F"/>
<path d="M642.558 430.06H575.283V431.062H642.558V430.06Z" fill="#D86713"/>
</svg>
